<svg id="visual" viewBox="0 0 450 50" width="450" height="50" xmlns="http://www.w3.org/2000/svg" xmlns:xlink="http://www.w3.org/1999/xlink" version="1.1"><path d="M0 10L8.3 11.8C16.7 13.7 33.3 17.3 50 20.2C66.7 23 83.3 25 100 26.2C116.7 27.3 133.3 27.7 150 23.3C166.7 19 183.3 10 200 5.5C216.7 1 233.3 1 250 4.7C266.7 8.3 283.3 15.7 300 21.5C316.7 27.3 333.3 31.7 350 28.7C366.7 25.7 383.3 15.3 400 11.5C416.7 7.7 433.3 10.3 441.7 11.7L450 13L450 51L441.7 51C433.3 51 416.7 51 400 51C383.3 51 366.7 51 350 51C333.3 51 316.7 51 300 51C283.3 51 266.7 51 250 51C233.3 51 216.7 51 200 51C183.3 51 166.7 51 150 51C133.3 51 116.7 51 100 51C83.3 51 66.7 51 50 51C33.3 51 16.7 51 8.3 51L0 51Z" fill="#ffffff" stroke-linecap="round" stroke-linejoin="miter"></path></svg>